<svg width="24" height="24" viewBox="0 0 24 24" fill="none" xmlns="http://www.w3.org/2000/svg">
<g id="ic">
<path id="Subtract" fill-rule="evenodd" clip-rule="evenodd" d="M12 22C17.5228 22 22 17.5228 22 12C22 6.47715 17.5228 2 12 2C6.47715 2 2 6.47715 2 12C2 17.5228 6.47715 22 12 22ZM10.0005 14.1701L15.8805 8.29006C16.2705 7.90006 16.9105 7.90006 17.3005 8.29006C17.6905 8.68006 17.6905 9.31006 17.3005 9.70006L10.7105 16.2901C10.3205 16.6801 9.69047 16.6801 9.30047 16.2901L6.71047 13.7001C6.32047 13.3101 6.32047 12.6801 6.71047 12.2901C7.10047 11.9001 7.73047 11.9001 8.12047 12.2901L10.0005 14.1701Z" fill="white"/>
</g>
</svg>
