<svg width="20" height="20" viewBox="0 0 20 20" fill="none" xmlns="http://www.w3.org/2000/svg">
<path fill-rule="evenodd" clip-rule="evenodd" d="M10.0013 18.3327C14.6037 18.3327 18.3346 14.6017 18.3346 9.99935C18.3346 5.39698 14.6037 1.66602 10.0013 1.66602C5.39893 1.66602 1.66797 5.39698 1.66797 9.99935C1.66797 14.6017 5.39893 18.3327 10.0013 18.3327ZM8.33503 11.8077L13.235 6.90773C13.56 6.58273 14.0934 6.58273 14.4184 6.90773C14.7434 7.23273 14.7434 7.75773 14.4184 8.08273L8.92669 13.5744C8.60169 13.8994 8.07669 13.8994 7.75169 13.5744L5.59336 11.4161C5.26836 11.0911 5.26836 10.5661 5.59336 10.2411C5.91836 9.91606 6.44336 9.91606 6.76836 10.2411L8.33503 11.8077Z"/>
</svg>
